<?xml version="1.0" encoding="utf-8"?>
<!-- Generator: Adobe Illustrator 23.0.3, SVG Export Plug-In . SVG Version: 6.00 Build 0)  -->
<svg version="1.1" id="Capa_1" xmlns="http://www.w3.org/2000/svg" xmlns:xlink="http://www.w3.org/1999/xlink" x="0px" y="0px"
	 viewBox="0 0 25.7 15.6" style="enable-background:new 0 0 25.7 15.6;" xml:space="preserve">
<style type="text/css">
	.st0{fill:#00FF72;}
	.st1{fill:#FFFFFF;}
	.st2{opacity:0.1;clip-path:url(#SVGID_3_);}
	.st3{fill:#333333;}
</style>
<g>
	<g>
		<g>
			<g>
				<g>
					<path class="st0" d="M14.8,10.9l0-4.9C14.8,3.2,17,1,19.7,1h0c2.7,0,4.9,2.2,4.9,4.9v0c0,2.7-2.2,4.9-4.9,4.9L14.8,10.9z"/>
					<path class="st1" d="M19.7,11.9h-6V6c0-3.3,2.7-6,6-6s6,2.7,6,6S23,11.9,19.7,11.9z M15.8,9.9h3.9c2.2,0,3.9-1.8,3.9-3.9
						s-1.8-3.9-3.9-3.9S15.8,3.8,15.8,6V9.9z"/>
				</g>
			</g>
			<g>
				<g>
					<path class="st0" d="M10.9,10.9l0-4.9C10.9,3.2,8.7,1,6,1h0C3.2,1,1,3.2,1,6v0c0,2.7,2.2,4.9,4.9,4.9L10.9,10.9z"/>
					<path class="st1" d="M11.9,11.9H6c-3.3,0-6-2.7-6-6s2.7-6,6-6s6,2.7,6,6V11.9z M6,2.1C3.8,2.1,2.1,3.8,2.1,6S3.8,9.9,6,9.9h3.9
						V6C9.9,3.8,8.1,2.1,6,2.1z"/>
				</g>
			</g>
		</g>
		<g>
			<g>
				<defs>
					<path id="SVGID_2_" d="M19.7,0c-3.3,0-6,2.7-6,6v6h6c3.3,0,6-2.7,6-6S23,0,19.7,0z"/>
				</defs>
				<clipPath id="SVGID_3_">
					<use xlink:href="#SVGID_2_"  style="overflow:visible;"/>
				</clipPath>
				<g class="st2">
					<path class="st3" d="M9.9,3c-2.3,2.3-2.3,6.1,0,8.4l4.2,4.2l4.2-4.2c2.3-2.3,2.3-6.1,0-8.4S12.2,0.7,9.9,3z"/>
				</g>
			</g>
			<g>
				<g>
					<path class="st3" d="M12.8,12.9l3.5-3.5c1.9-1.9,1.9-5,0-7l0,0c-1.9-1.9-5-1.9-7,0l0,0c-1.9,1.9-1.9,5,0,7L12.8,12.9z"/>
					<path class="st1" d="M12.8,14.4l-4.2-4.2c-2.3-2.3-2.3-6.1,0-8.4C9.7,0.6,11.2,0,12.8,0c1.6,0,3.1,0.6,4.2,1.7
						c2.3,2.3,2.3,6.1,0,8.4L12.8,14.4z M12.8,2.1c-1,0-2,0.4-2.8,1.1c-1.5,1.5-1.5,4,0,5.5l2.8,2.8l2.8-2.8c1.5-1.5,1.5-4,0-5.5
						C14.8,2.4,13.8,2.1,12.8,2.1z"/>
				</g>
			</g>
		</g>
	</g>
</g>
</svg>
