<?xml version="1.0" encoding="utf-8"?>
<!-- Generator: Adobe Illustrator 23.0.3, SVG Export Plug-In . SVG Version: 6.00 Build 0)  -->
<svg version="1.1" id="Capa_1" xmlns="http://www.w3.org/2000/svg" xmlns:xlink="http://www.w3.org/1999/xlink" x="0px" y="0px"
	 viewBox="0 0 32.1 18" style="enable-background:new 0 0 32.1 18;" xml:space="preserve">
<style type="text/css">
	.st0{fill:#00FF72;}
	.st1{fill:#FFFFFF;}
	.st2{opacity:0.1;clip-path:url(#SVGID_3_);}
	.st3{fill:#333333;}
</style>
<g>
	<g>
		<g>
			<g>
				<g>
					<path class="st0" d="M18.5,13.6l0-6.2c0-3.4,2.8-6.2,6.2-6.2h0c3.4,0,6.2,2.8,6.2,6.2v0c0,3.4-2.8,6.2-6.2,6.2L18.5,13.6z"/>
					<path class="st1" d="M24.7,14.9h-7.5V7.5c0-4.1,3.3-7.5,7.5-7.5s7.5,3.3,7.5,7.5S28.8,14.9,24.7,14.9z M19.8,12.3h4.9
						c2.7,0,4.9-2.2,4.9-4.9s-2.2-4.9-4.9-4.9s-4.9,2.2-4.9,4.9V12.3z"/>
				</g>
			</g>
			<g>
				<g>
					<path class="st0" d="M13.6,13.6l0-6.2c0-3.4-2.8-6.2-6.2-6.2h0C4,1.3,1.3,4,1.3,7.5v0c0,3.4,2.8,6.2,6.2,6.2L13.6,13.6z"/>
					<path class="st1" d="M14.9,14.9H7.5C3.3,14.9,0,11.6,0,7.5S3.3,0,7.5,0s7.5,3.3,7.5,7.5V14.9z M7.5,2.6c-2.7,0-4.9,2.2-4.9,4.9
						s2.2,4.9,4.9,4.9h4.9V7.5C12.3,4.8,10.1,2.6,7.5,2.6z"/>
				</g>
			</g>
		</g>
		<g>
			<g>
				<defs>
					<path id="SVGID_2_" d="M24.7,0c-4.1,0-7.5,3.3-7.5,7.5v7.5h7.5c4.1,0,7.5-3.3,7.5-7.5S28.8,0,24.7,0z"/>
				</defs>
				<clipPath id="SVGID_3_">
					<use xlink:href="#SVGID_2_"  style="overflow:visible;"/>
				</clipPath>
				<g class="st2">
					<path class="st3" d="M12.4,3.8c-2.9,2.9-2.9,7.6,0,10.5l5.3,5.3l5.3-5.3c2.9-2.9,2.9-7.6,0-10.5S15.3,0.9,12.4,3.8z"/>
				</g>
			</g>
			<g>
				<g>
					<path class="st3" d="M16.1,16.2l4.4-4.4c2.4-2.4,2.4-6.3,0-8.7l0,0c-2.4-2.4-6.3-2.4-8.7,0l0,0c-2.4,2.4-2.4,6.3,0,8.7
						L16.1,16.2z"/>
					<path class="st1" d="M16.1,18l-5.3-5.3c-2.9-2.9-2.9-7.6,0-10.5C12.2,0.8,14.1,0,16.1,0c2,0,3.9,0.8,5.3,2.2
						c2.9,2.9,2.9,7.6,0,10.5L16.1,18z M16.1,2.6c-1.3,0-2.5,0.5-3.5,1.4c-1.9,1.9-1.9,5,0,6.9l3.5,3.5l3.5-3.5c1.9-1.9,1.9-5,0-6.9
						C18.6,3,17.3,2.6,16.1,2.6z"/>
				</g>
			</g>
		</g>
	</g>
</g>
</svg>
