<?xml version="1.0" encoding="utf-8"?>
<!-- Generator: Adobe Illustrator 23.0.3, SVG Export Plug-In . SVG Version: 6.00 Build 0)  -->
<svg version="1.1" xmlns="http://www.w3.org/2000/svg" xmlns:xlink="http://www.w3.org/1999/xlink" x="0px" y="0px"
	 viewBox="0 0 63.7 63.7" style="enable-background:new 0 0 63.7 63.7;" xml:space="preserve">
<style type="text/css">
	.st0{fill:#111126;}
	.st1{fill:#00FF79;}
</style>
<g id="BACKGROUND">
</g>
<g id="OBJECTS">
	<g id="Capa_4">
	</g>
	<g>
		<g>
			<g>
				<g>
					<g>
						<path class="st1" d="M16.8,26.1c0-1.9,0.3-3.8,1.4-5.4c1-1.5,2.4-2.5,4.1-3.1c1.7-0.6,3.5-0.6,5.2-0.6c3.4,0,6.7,0,10.1,0
							c1.9,0,3.7,0.4,5.3,1.5c1.8,1.2,2.9,2.9,3.3,5c0.2,1.3,0.3,2.5,0.3,3.8c0,3.6,0,7.3-0.1,10.9c0,1.6-0.4,3.1-1.2,4.5
							c-1,1.7-2.4,2.8-4.3,3.4c-1.7,0.5-3.4,0.6-5.2,0.6c-3.3,0-6.6,0-9.9,0c-1.7,0-3.4-0.3-5-1.2c-1.8-1-3-2.5-3.6-4.5
							c-0.4-1.3-0.5-2.7-0.6-4.1C16.8,36.7,16.8,28.9,16.8,26.1z M19.7,39.1c0.2,1.4,0.8,2.7,2,3.6c1.2,0.9,2.5,1.2,3.9,1.2
							c4.5,0.1,8.9,0.3,13.4-0.1c1-0.1,1.9-0.4,2.7-1c1.5-1.1,2.1-2.8,2.1-4.6c0.1-3.3,0.1-6.7,0.1-10c0-1.2-0.1-2.4-0.2-3.6
							c-0.1-1.3-0.7-2.4-1.7-3.3c-1.1-1-2.4-1.4-3.9-1.4c-3.6-0.1-7.2-0.1-10.9-0.1c-1.3,0-2.7,0-4,0.4c-2.2,0.7-3.4,2.4-3.6,4.5
							C19.5,27.2,19.5,37.4,19.7,39.1z"/>
						<path class="st1" d="M31.7,24.2c4.1,0,7.7,3.4,7.6,7.7c0,4.3-3.6,7.6-7.7,7.6c-4.2,0-7.7-3.5-7.6-7.7
							C24.1,27.5,27.5,24.2,31.7,24.2z M36.6,31.9c0.1-2.6-2.2-5-4.9-5c-2.7,0-5,2.2-4.9,4.9c0,2.8,2.2,5,5,5
							C34.4,36.8,36.6,34.6,36.6,31.9z"/>
						<path class="st1" d="M39.6,25.7c-1,0.1-1.8-0.8-1.8-1.7c0-1,0.8-1.8,1.8-1.8c1,0,1.9,0.9,1.8,1.8
							C41.4,24.8,40.7,25.8,39.6,25.7z"/>
					</g>
				</g>
			</g>
		</g>
		<g>
			<path class="st1" d="M31.8,63.7C14.3,63.7,0,49.4,0,31.8S14.3,0,31.8,0c17.6,0,31.8,14.3,31.8,31.8S49.4,63.7,31.8,63.7z
				 M31.8,2.7c-16,0-29.1,13.1-29.1,29.1s13.1,29.1,29.1,29.1s29.1-13.1,29.1-29.1S47.9,2.7,31.8,2.7z"/>
		</g>
	</g>
</g>
<g id="DESIGNED_BY_FREEPIK">
</g>
</svg>
