<?xml version="1.0" encoding="utf-8"?>
<!-- Generator: Adobe Illustrator 23.0.3, SVG Export Plug-In . SVG Version: 6.00 Build 0)  -->
<svg version="1.1" xmlns="http://www.w3.org/2000/svg" xmlns:xlink="http://www.w3.org/1999/xlink" x="0px" y="0px"
	 viewBox="0 0 63.7 63.7" style="enable-background:new 0 0 63.7 63.7;" xml:space="preserve">
<style type="text/css">
	.st0{fill:#111126;}
	.st1{fill:#00FF79;}
</style>
<g id="BACKGROUND">
</g>
<g id="OBJECTS">
	<g id="Capa_4">
	</g>
	<g>
		<g>
			<g>
				<g>
					<rect x="29.1" y="25" class="st1" width="2.5" height="7.7"/>
					<rect x="36.1" y="25" class="st1" width="2.5" height="7.7"/>
					<path class="st1" d="M19.6,17.4l-1.9,5.1v20.4h7v3.9h3.8l3.9-3.9h5.7l7.6-7.6V17.4H19.6z M43.2,34l-4.5,4.5h-7l-3.8,3.8v-3.8
						h-5.8V19.9h21.1V34z"/>
				</g>
			</g>
		</g>
		<g>
			<path class="st1" d="M31.8,63.7C14.3,63.7,0,49.4,0,31.8S14.3,0,31.8,0c17.6,0,31.8,14.3,31.8,31.8S49.4,63.7,31.8,63.7z
				 M31.8,2.7c-16,0-29.1,13.1-29.1,29.1c0,16,13.1,29.1,29.1,29.1s29.1-13.1,29.1-29.1C60.9,15.8,47.9,2.7,31.8,2.7z"/>
		</g>
	</g>
</g>
<g id="DESIGNED_BY_FREEPIK">
</g>
</svg>
