<?xml version="1.0" encoding="utf-8"?>
<!-- Generator: Adobe Illustrator 23.0.3, SVG Export Plug-In . SVG Version: 6.00 Build 0)  -->
<svg version="1.1" xmlns="http://www.w3.org/2000/svg" xmlns:xlink="http://www.w3.org/1999/xlink" x="0px" y="0px"
	 viewBox="0 0 63.7 63.7" style="enable-background:new 0 0 63.7 63.7;" xml:space="preserve">
<style type="text/css">
	.st0{fill:#111126;}
	.st1{fill:#00FF79;}
</style>
<g id="BACKGROUND">
</g>
<g id="OBJECTS">
	<g id="Capa_4">
	</g>
	<g>
		<g>
			<g>
				<path class="st1" d="M35.5,21.8c1.3,0,3.5,0,3.5,0v-4.5c0,0-1.5,0-3.6,0c-2,0-7,0.2-7,6.1v3.8h-3.9v4.6h3.9v14.5H34V31.8h4.5
					l0.5-4.6H34v-3.8C34,23.4,34.2,21.8,35.5,21.8z"/>
			</g>
		</g>
		<g>
			<path class="st1" d="M31.8,63.7C14.3,63.7,0,49.4,0,31.8S14.3,0,31.8,0c17.6,0,31.8,14.3,31.8,31.8S49.4,63.7,31.8,63.7z
				 M31.8,2.7c-16,0-29.1,13.1-29.1,29.1s13.1,29.1,29.1,29.1c16,0,29.1-13.1,29.1-29.1S47.9,2.7,31.8,2.7z"/>
		</g>
	</g>
</g>
<g id="DESIGNED_BY_FREEPIK">
</g>
</svg>
