<?xml version="1.0" encoding="utf-8"?>
<!-- Generator: Adobe Illustrator 23.0.3, SVG Export Plug-In . SVG Version: 6.00 Build 0)  -->
<svg version="1.1" xmlns="http://www.w3.org/2000/svg" xmlns:xlink="http://www.w3.org/1999/xlink" x="0px" y="0px"
	 viewBox="0 0 63.7 63.7" style="enable-background:new 0 0 63.7 63.7;" xml:space="preserve">
<style type="text/css">
	.st0{fill:#111126;}
	.st1{fill:#00FF79;}
</style>
<g id="BACKGROUND">
</g>
<g id="OBJECTS">
	<g id="Capa_4">
	</g>
	<g>
		<g>
			<g>
				<path class="st1" d="M42.8,20.1H20.8c-3.5,0-6.4,2.8-6.4,6.4v11.3c0,3.5,2.8,6.4,6.4,6.4h22.1c3.5,0,6.4-2.8,6.4-6.4V26.5
					C49.2,23,46.3,20.1,42.8,20.1z M28.5,36.4v-8.8l8.7,4.4L28.5,36.4z"/>
			</g>
		</g>
		<g>
			<path class="st1" d="M31.8,63.7C14.3,63.7,0,49.4,0,31.8S14.3,0,31.8,0c17.6,0,31.8,14.3,31.8,31.8S49.4,63.7,31.8,63.7z
				 M31.8,2.7c-16,0-29.1,13.1-29.1,29.1s13.1,29.1,29.1,29.1c16,0,29.1-13.1,29.1-29.1S47.9,2.7,31.8,2.7z"/>
		</g>
	</g>
</g>
<g id="DESIGNED_BY_FREEPIK">
</g>
</svg>
